<svg xmlns="http://www.w3.org/2000/svg" xmlns:xlink="http://www.w3.org/1999/xlink" width="98" zoomAndPan="magnify" viewBox="0 0 73.5 73.499996" height="98" preserveAspectRatio="xMidYMid meet" version="1.0"><defs><clipPath id="9700349320"><path d="M 33 21 L 36 21 L 36 61.652344 L 33 61.652344 Z M 33 21 " clip-rule="nonzero"/></clipPath><clipPath id="e77b36915b"><path d="M 37 21 L 40 21 L 40 61.652344 L 37 61.652344 Z M 37 21 " clip-rule="nonzero"/></clipPath></defs><path fill="#393536" d="M 63.566406 18.894531 C 62.992188 18.894531 62.527344 18.429688 62.527344 17.859375 C 62.527344 17.742188 62.546875 17.628906 62.585938 17.519531 C 62.621094 17.421875 62.667969 17.332031 62.730469 17.246094 C 62.734375 17.242188 62.734375 17.242188 62.738281 17.238281 C 62.753906 17.21875 62.765625 17.199219 62.78125 17.183594 C 62.785156 17.179688 62.789062 17.175781 62.789062 17.175781 C 62.835938 17.125 62.886719 17.078125 62.941406 17.035156 C 62.949219 17.03125 62.957031 17.023438 62.96875 17.015625 C 62.980469 17.007812 62.996094 16.996094 63.007812 16.988281 C 63.019531 16.980469 63.035156 16.972656 63.046875 16.964844 C 63.058594 16.957031 63.070312 16.953125 63.085938 16.945312 C 63.101562 16.9375 63.121094 16.925781 63.136719 16.917969 C 63.148438 16.914062 63.15625 16.910156 63.167969 16.90625 C 63.195312 16.894531 63.222656 16.886719 63.25 16.875 C 63.257812 16.871094 63.269531 16.871094 63.28125 16.867188 C 63.300781 16.863281 63.320312 16.855469 63.339844 16.851562 C 63.351562 16.847656 63.363281 16.847656 63.375 16.84375 C 63.394531 16.839844 63.417969 16.835938 63.441406 16.835938 C 63.449219 16.832031 63.460938 16.832031 63.46875 16.832031 C 63.5 16.828125 63.535156 16.828125 63.566406 16.828125 C 64.140625 16.828125 64.609375 17.289062 64.609375 17.859375 C 64.609375 18.429688 64.140625 18.894531 63.566406 18.894531 Z M 9.4375 19.132812 C 8.730469 19.132812 8.15625 18.5625 8.15625 17.859375 C 8.15625 17.15625 8.730469 16.589844 9.4375 16.589844 C 9.476562 16.589844 9.519531 16.589844 9.558594 16.59375 C 9.570312 16.597656 9.582031 16.597656 9.597656 16.597656 C 9.625 16.601562 9.648438 16.605469 9.675781 16.613281 C 9.691406 16.613281 9.707031 16.617188 9.71875 16.621094 C 9.746094 16.625 9.765625 16.632812 9.789062 16.640625 C 9.804688 16.644531 9.820312 16.648438 9.835938 16.652344 C 9.859375 16.660156 9.878906 16.667969 9.902344 16.675781 C 9.917969 16.683594 9.929688 16.6875 9.945312 16.695312 C 9.96875 16.703125 9.992188 16.714844 10.015625 16.726562 C 10.039062 16.738281 10.0625 16.753906 10.089844 16.765625 C 10.105469 16.777344 10.121094 16.785156 10.136719 16.796875 C 10.15625 16.808594 10.175781 16.820312 10.191406 16.835938 C 10.203125 16.84375 10.214844 16.851562 10.226562 16.863281 C 10.246094 16.875 10.261719 16.890625 10.28125 16.90625 C 10.289062 16.914062 10.300781 16.921875 10.308594 16.929688 C 10.328125 16.949219 10.34375 16.964844 10.363281 16.984375 C 10.367188 16.992188 10.375 16.996094 10.378906 17.003906 C 10.46875 17.097656 10.539062 17.207031 10.597656 17.324219 C 10.597656 17.324219 10.597656 17.328125 10.597656 17.328125 C 10.613281 17.355469 10.625 17.386719 10.636719 17.417969 C 10.636719 17.421875 10.636719 17.421875 10.636719 17.425781 C 10.648438 17.457031 10.660156 17.488281 10.667969 17.519531 C 10.699219 17.628906 10.714844 17.742188 10.714844 17.859375 C 10.714844 18.5625 10.144531 19.132812 9.4375 19.132812 Z M 63.566406 15.246094 L 9.4375 15.246094 C 7.984375 15.246094 6.804688 16.417969 6.804688 17.859375 C 6.804688 19.304688 7.984375 20.472656 9.4375 20.472656 C 10.890625 20.472656 12.066406 19.304688 12.066406 17.859375 C 12.066406 17.746094 12.058594 17.632812 12.042969 17.519531 L 60.960938 17.519531 C 60.945312 17.632812 60.9375 17.746094 60.9375 17.859375 C 60.9375 19.304688 62.113281 20.472656 63.566406 20.472656 C 65.019531 20.472656 66.199219 19.304688 66.199219 17.859375 C 66.199219 16.417969 65.019531 15.246094 63.566406 15.246094 " fill-opacity="1" fill-rule="nonzero"/><path fill="#393536" d="M 24.566406 12.140625 C 24.566406 12.769531 25.078125 13.277344 25.710938 13.277344 L 47.292969 13.277344 C 47.925781 13.277344 48.4375 12.769531 48.4375 12.140625 C 48.4375 11.515625 47.925781 11.003906 47.292969 11.003906 L 25.710938 11.003906 C 25.078125 11.003906 24.566406 11.515625 24.566406 12.140625 " fill-opacity="1" fill-rule="nonzero"/><g clip-path="url(#9700349320)"><path fill="#393536" d="M 34.183594 21.984375 C 33.554688 21.984375 33.039062 22.492188 33.039062 23.121094 L 33.039062 60.519531 C 33.039062 61.148438 33.554688 61.65625 34.183594 61.65625 C 34.816406 61.65625 35.328125 61.148438 35.328125 60.519531 L 35.328125 23.121094 C 35.328125 22.492188 34.816406 21.984375 34.183594 21.984375 " fill-opacity="1" fill-rule="nonzero"/></g><g clip-path="url(#e77b36915b)"><path fill="#393536" d="M 38.820312 21.984375 C 38.1875 21.984375 37.675781 22.492188 37.675781 23.121094 L 37.675781 60.519531 C 37.675781 61.148438 38.1875 61.65625 38.820312 61.65625 C 39.449219 61.65625 39.964844 61.148438 39.964844 60.519531 L 39.964844 23.121094 C 39.964844 22.492188 39.449219 21.984375 38.820312 21.984375 " fill-opacity="1" fill-rule="nonzero"/></g><path fill="#393536" d="M 44.9375 23.433594 C 44.820312 23.433594 44.703125 23.414062 44.597656 23.375 C 44.496094 23.339844 44.40625 23.292969 44.320312 23.230469 C 44.316406 23.226562 44.3125 23.226562 44.3125 23.222656 C 44.292969 23.207031 44.273438 23.195312 44.257812 23.179688 C 44.253906 23.175781 44.25 23.175781 44.246094 23.171875 C 44.195312 23.125 44.152344 23.078125 44.109375 23.023438 C 44.101562 23.015625 44.097656 23.003906 44.089844 22.996094 C 44.078125 22.980469 44.070312 22.96875 44.0625 22.953125 C 44.054688 22.941406 44.046875 22.929688 44.039062 22.917969 C 44.03125 22.90625 44.023438 22.890625 44.015625 22.878906 C 44.007812 22.863281 44 22.84375 43.992188 22.824219 C 43.988281 22.816406 43.980469 22.808594 43.976562 22.796875 C 43.964844 22.769531 43.957031 22.742188 43.949219 22.714844 C 43.945312 22.707031 43.941406 22.695312 43.9375 22.683594 C 43.933594 22.664062 43.925781 22.644531 43.921875 22.625 C 43.921875 22.613281 43.917969 22.601562 43.917969 22.589844 C 43.914062 22.570312 43.910156 22.546875 43.90625 22.527344 C 43.90625 22.515625 43.902344 22.503906 43.902344 22.496094 C 43.898438 22.464844 43.898438 22.433594 43.898438 22.398438 C 43.898438 21.828125 44.363281 21.367188 44.9375 21.367188 C 45.511719 21.367188 45.980469 21.828125 45.980469 22.398438 C 45.980469 22.96875 45.511719 23.433594 44.9375 23.433594 Z M 47.5625 22.234375 C 47.484375 20.933594 46.417969 19.871094 45.105469 19.792969 C 43.578125 19.699219 42.308594 20.902344 42.308594 22.398438 L 42.308594 55.476562 C 42.308594 56.101562 42.820312 56.613281 43.453125 56.613281 C 44.085938 56.613281 44.597656 56.101562 44.597656 55.476562 L 44.597656 24.988281 C 44.710938 25.003906 44.824219 25.011719 44.9375 25.011719 C 46.449219 25.011719 47.660156 23.75 47.5625 22.234375 " fill-opacity="1" fill-rule="nonzero"/><path fill="#393536" d="M 29.101562 22.496094 C 29.101562 22.503906 29.097656 22.515625 29.097656 22.527344 C 29.09375 22.546875 29.089844 22.570312 29.085938 22.589844 C 29.085938 22.601562 29.082031 22.613281 29.082031 22.625 C 29.074219 22.644531 29.070312 22.664062 29.066406 22.683594 C 29.0625 22.695312 29.058594 22.707031 29.054688 22.714844 C 29.046875 22.742188 29.035156 22.769531 29.023438 22.796875 C 29.019531 22.808594 29.015625 22.816406 29.011719 22.824219 C 29.003906 22.84375 28.996094 22.863281 28.988281 22.878906 C 28.980469 22.890625 28.972656 22.90625 28.964844 22.917969 C 28.957031 22.929688 28.949219 22.941406 28.941406 22.953125 C 28.933594 22.96875 28.925781 22.980469 28.914062 22.996094 C 28.90625 23.003906 28.902344 23.015625 28.894531 23.023438 C 28.851562 23.078125 28.804688 23.125 28.753906 23.171875 C 28.753906 23.175781 28.75 23.175781 28.746094 23.179688 C 28.730469 23.195312 28.710938 23.207031 28.691406 23.222656 C 28.6875 23.226562 28.683594 23.226562 28.683594 23.230469 C 28.597656 23.292969 28.507812 23.339844 28.40625 23.375 C 28.300781 23.414062 28.183594 23.433594 28.0625 23.433594 C 27.488281 23.433594 27.023438 22.96875 27.023438 22.398438 C 27.023438 21.828125 27.488281 21.367188 28.0625 21.367188 C 28.640625 21.367188 29.105469 21.828125 29.105469 22.398438 C 29.105469 22.433594 29.105469 22.464844 29.101562 22.496094 Z M 28.136719 19.789062 C 26.652344 19.746094 25.433594 20.933594 25.433594 22.398438 C 25.433594 23.84375 26.613281 25.011719 28.0625 25.011719 C 28.179688 25.011719 28.292969 25.003906 28.40625 24.988281 L 28.40625 55.476562 C 28.40625 56.101562 28.917969 56.613281 29.550781 56.613281 C 30.183594 56.613281 30.695312 56.101562 30.695312 55.476562 L 30.695312 22.453125 C 30.695312 21.03125 29.570312 19.828125 28.136719 19.789062 " fill-opacity="1" fill-rule="nonzero"/><path fill="#393536" d="M 18.871094 37.828125 C 18.871094 41.105469 14.648438 43.761719 9.4375 43.761719 C 4.226562 43.761719 0.00390625 41.105469 0.00390625 37.828125 L 18.871094 37.828125 " fill-opacity="1" fill-rule="nonzero"/><path fill="#393536" d="M 4.335938 38.390625 L 14.539062 38.390625 L 9.4375 22 Z M 15.695312 39.238281 L 3.175781 39.238281 L 9.4375 19.132812 L 15.695312 39.238281 " fill-opacity="1" fill-rule="nonzero"/><path fill="#393536" d="M 9.863281 39.238281 L 9.007812 39.238281 L 9.007812 19.132812 L 9.863281 19.132812 L 9.863281 39.238281 " fill-opacity="1" fill-rule="nonzero"/><path fill="#393536" d="M 73 37.828125 C 73 41.105469 68.777344 43.761719 63.566406 43.761719 C 58.355469 43.761719 54.132812 41.105469 54.132812 37.828125 L 73 37.828125 " fill-opacity="1" fill-rule="nonzero"/><path fill="#393536" d="M 58.464844 38.390625 L 68.667969 38.390625 L 63.566406 22 Z M 69.824219 39.238281 L 57.308594 39.238281 L 63.566406 19.132812 L 69.824219 39.238281 " fill-opacity="1" fill-rule="nonzero"/><path fill="#393536" d="M 63.996094 39.238281 L 63.140625 39.238281 L 63.140625 19.132812 L 63.996094 19.132812 L 63.996094 39.238281 " fill-opacity="1" fill-rule="nonzero"/></svg>