<svg xmlns="http://www.w3.org/2000/svg" xmlns:xlink="http://www.w3.org/1999/xlink" width="140" zoomAndPan="magnify" viewBox="0 0 104.88 60" height="80" preserveAspectRatio="xMidYMid meet" version="1.0"><defs><g/><clipPath id="a04324c30d"><path d="M 0.0351562 7 L 14 7 L 14 21 L 0.0351562 21 Z M 0.0351562 7 " clip-rule="nonzero"/></clipPath><clipPath id="8ab3adc7c9"><rect x="0" width="62" y="0" height="28"/></clipPath><clipPath id="b085a971bf"><path d="M 0.0351562 2 L 5 2 L 5 9 L 0.0351562 9 Z M 0.0351562 2 " clip-rule="nonzero"/></clipPath><clipPath id="6d270ebd7a"><rect x="0" width="58" y="0" height="11"/></clipPath><clipPath id="351e811af3"><path d="M 11 21.453125 L 22 21.453125 L 22 23 L 11 23 Z M 11 21.453125 " clip-rule="nonzero"/></clipPath><clipPath id="053cdab4c0"><path d="M 15 26 L 17 26 L 17 42.429688 L 15 42.429688 Z M 15 26 " clip-rule="nonzero"/></clipPath><clipPath id="fbe8bb8ff2"><path d="M 17 26 L 19 26 L 19 42.429688 L 17 42.429688 Z M 17 26 " clip-rule="nonzero"/></clipPath><clipPath id="9abf7bb1f8"><path d="M 1.835938 32 L 10 32 L 10 36 L 1.835938 36 Z M 1.835938 32 " clip-rule="nonzero"/></clipPath><clipPath id="b70e83bb88"><path d="M 24 32 L 31.800781 32 L 31.800781 36 L 24 36 Z M 24 32 " clip-rule="nonzero"/></clipPath></defs><path stroke-linecap="round" transform="matrix(0, 0.749143, -0.749143, 0, 37.820402, 4.382828)" fill="none" stroke-linejoin="miter" d="M 0.500552 0.500692 L 67.9005 0.500692 " stroke="#191919" stroke-width="1" stroke-opacity="1" stroke-miterlimit="4"/><g transform="matrix(1, 0, 0, 1, 40, 13)"><g clip-path="url(#8ab3adc7c9)"><g clip-path="url(#a04324c30d)"><g fill="#ad8339" fill-opacity="1"><g transform="translate(0.229705, 20.483894)"><g><path d="M 9.28125 -2.3125 L 4.40625 -2.3125 L 3.625 0 L 0.296875 0 L 5.015625 -13.046875 L 8.703125 -13.046875 L 13.421875 0 L 10.0625 0 Z M 8.453125 -4.765625 L 6.84375 -9.53125 L 5.25 -4.765625 Z M 8.453125 -4.765625 "/></g></g></g></g><g fill="#ad8339" fill-opacity="1"><g transform="translate(15.266012, 20.483894)"><g><path d="M 4.328125 -10.5 L 4.328125 -7.859375 L 8.59375 -7.859375 L 8.59375 -5.40625 L 4.328125 -5.40625 L 4.328125 -2.546875 L 9.140625 -2.546875 L 9.140625 0 L 1.15625 0 L 1.15625 -13.046875 L 9.140625 -13.046875 L 9.140625 -10.5 Z M 4.328125 -10.5 "/></g></g></g><g fill="#ad8339" fill-opacity="1"><g transform="translate(26.659408, 20.483894)"><g><path d="M 9.8125 -8.921875 C 9.582031 -9.359375 9.242188 -9.691406 8.796875 -9.921875 C 8.359375 -10.148438 7.84375 -10.265625 7.25 -10.265625 C 6.21875 -10.265625 5.390625 -9.925781 4.765625 -9.25 C 4.148438 -8.570312 3.84375 -7.671875 3.84375 -6.546875 C 3.84375 -5.335938 4.164062 -4.394531 4.8125 -3.71875 C 5.46875 -3.050781 6.367188 -2.71875 7.515625 -2.71875 C 8.296875 -2.71875 8.953125 -2.914062 9.484375 -3.3125 C 10.023438 -3.707031 10.421875 -4.273438 10.671875 -5.015625 L 6.640625 -5.015625 L 6.640625 -7.359375 L 13.5625 -7.359375 L 13.5625 -4.40625 C 13.320312 -3.613281 12.921875 -2.875 12.359375 -2.1875 C 11.796875 -1.507812 11.078125 -0.957031 10.203125 -0.53125 C 9.335938 -0.113281 8.359375 0.09375 7.265625 0.09375 C 5.984375 0.09375 4.835938 -0.1875 3.828125 -0.75 C 2.816406 -1.3125 2.023438 -2.09375 1.453125 -3.09375 C 0.890625 -4.101562 0.609375 -5.253906 0.609375 -6.546875 C 0.609375 -7.835938 0.890625 -8.988281 1.453125 -10 C 2.023438 -11.007812 2.8125 -11.796875 3.8125 -12.359375 C 4.8125 -12.921875 5.957031 -13.203125 7.25 -13.203125 C 8.8125 -13.203125 10.128906 -12.820312 11.203125 -12.0625 C 12.273438 -11.3125 12.984375 -10.265625 13.328125 -8.921875 Z M 9.8125 -8.921875 "/></g></g></g><g fill="#ad8339" fill-opacity="1"><g transform="translate(42.16037, 20.483894)"><g><path d="M 4.328125 -13.046875 L 4.328125 0 L 1.15625 0 L 1.15625 -13.046875 Z M 4.328125 -13.046875 "/></g></g></g><g fill="#ad8339" fill-opacity="1"><g transform="translate(48.981539, 20.483894)"><g><path d="M 5.875 0.125 C 4.914062 0.125 4.054688 -0.0234375 3.296875 -0.328125 C 2.546875 -0.640625 1.941406 -1.097656 1.484375 -1.703125 C 1.035156 -2.316406 0.800781 -3.050781 0.78125 -3.90625 L 4.171875 -3.90625 C 4.210938 -3.414062 4.375 -3.046875 4.65625 -2.796875 C 4.945312 -2.546875 5.320312 -2.421875 5.78125 -2.421875 C 6.25 -2.421875 6.617188 -2.523438 6.890625 -2.734375 C 7.171875 -2.953125 7.3125 -3.253906 7.3125 -3.640625 C 7.3125 -3.960938 7.203125 -4.226562 6.984375 -4.4375 C 6.765625 -4.65625 6.492188 -4.832031 6.171875 -4.96875 C 5.859375 -5.101562 5.410156 -5.253906 4.828125 -5.421875 C 3.984375 -5.679688 3.296875 -5.941406 2.765625 -6.203125 C 2.234375 -6.460938 1.773438 -6.847656 1.390625 -7.359375 C 1.003906 -7.867188 0.8125 -8.535156 0.8125 -9.359375 C 0.8125 -10.566406 1.25 -11.515625 2.125 -12.203125 C 3.007812 -12.890625 4.160156 -13.234375 5.578125 -13.234375 C 7.015625 -13.234375 8.171875 -12.890625 9.046875 -12.203125 C 9.929688 -11.515625 10.40625 -10.554688 10.46875 -9.328125 L 7.03125 -9.328125 C 7 -9.753906 6.84375 -10.085938 6.5625 -10.328125 C 6.28125 -10.566406 5.914062 -10.6875 5.46875 -10.6875 C 5.082031 -10.6875 4.769531 -10.582031 4.53125 -10.375 C 4.300781 -10.175781 4.1875 -9.882812 4.1875 -9.5 C 4.1875 -9.082031 4.382812 -8.753906 4.78125 -8.515625 C 5.175781 -8.273438 5.796875 -8.019531 6.640625 -7.75 C 7.484375 -7.46875 8.164062 -7.195312 8.6875 -6.9375 C 9.21875 -6.675781 9.675781 -6.296875 10.0625 -5.796875 C 10.445312 -5.304688 10.640625 -4.671875 10.640625 -3.890625 C 10.640625 -3.140625 10.445312 -2.460938 10.0625 -1.859375 C 9.6875 -1.253906 9.140625 -0.769531 8.421875 -0.40625 C 7.703125 -0.0507812 6.851562 0.125 5.875 0.125 Z M 5.875 0.125 "/></g></g></g></g></g><g transform="matrix(1, 0, 0, 1, 40, 34)"><g clip-path="url(#6d270ebd7a)"><g clip-path="url(#b085a971bf)"><g fill="#393536" fill-opacity="1"><g transform="translate(0.229705, 8.237009)"><g><path d="M 0.640625 -5.421875 L 1.90625 -5.421875 L 1.90625 -1.015625 L 4.625 -1.015625 L 4.625 0 L 0.640625 0 Z M 0.640625 -5.421875 "/></g></g></g></g><g fill="#393536" fill-opacity="1"><g transform="translate(6.866555, 8.237009)"><g><path d="M 4.21875 -1.15625 L 1.703125 -1.15625 L 1.21875 0 L -0.0625 0 L 2.34375 -5.421875 L 3.59375 -5.421875 L 6.015625 0 L 4.703125 0 Z M 3.828125 -2.109375 L 2.953125 -4.1875 L 2.09375 -2.109375 Z M 3.828125 -2.109375 "/></g></g></g><g fill="#393536" fill-opacity="1"><g transform="translate(14.417228, 8.237009)"><g><path d="M 8.84375 -5.421875 L 7.0625 0 L 5.71875 0 L 4.53125 -3.671875 L 3.296875 0 L 1.953125 0 L 0.171875 -5.421875 L 1.46875 -5.421875 L 2.703125 -1.609375 L 3.96875 -5.421875 L 5.140625 -5.421875 L 6.375 -1.578125 L 7.640625 -5.421875 Z M 8.84375 -5.421875 "/></g></g></g><g fill="#393536" fill-opacity="1"><g transform="translate(25.336664, 8.237009)"><g/></g></g><g fill="#393536" fill-opacity="1"><g transform="translate(29.441134, 8.237009)"><g><path d="M 1.90625 -4.421875 L 1.90625 -2.984375 L 4.40625 -2.984375 L 4.40625 -1.96875 L 1.90625 -1.96875 L 1.90625 0 L 0.640625 0 L 0.640625 -5.421875 L 4.75 -5.421875 L 4.75 -4.421875 Z M 1.90625 -4.421875 "/></g></g></g><g fill="#393536" fill-opacity="1"><g transform="translate(36.302567, 8.237009)"><g><path d="M 0.640625 -5.421875 L 1.90625 -5.421875 L 1.90625 0 L 0.640625 0 Z M 0.640625 -5.421875 "/></g></g></g><g fill="#393536" fill-opacity="1"><g transform="translate(40.755528, 8.237009)"><g><path d="M 4.09375 0 L 3.046875 -1.515625 L 1.90625 -1.515625 L 1.90625 0 L 0.640625 0 L 0.640625 -5.421875 L 2.984375 -5.421875 C 3.472656 -5.421875 3.894531 -5.335938 4.25 -5.171875 C 4.601562 -5.015625 4.875 -4.789062 5.0625 -4.5 C 5.25 -4.207031 5.34375 -3.859375 5.34375 -3.453125 C 5.34375 -3.054688 5.242188 -2.707031 5.046875 -2.40625 C 4.859375 -2.113281 4.585938 -1.894531 4.234375 -1.75 L 5.453125 0 Z M 4.078125 -3.453125 C 4.078125 -3.753906 3.976562 -3.988281 3.78125 -4.15625 C 3.582031 -4.320312 3.296875 -4.40625 2.921875 -4.40625 L 1.90625 -4.40625 L 1.90625 -2.515625 L 2.921875 -2.515625 C 3.296875 -2.515625 3.582031 -2.59375 3.78125 -2.75 C 3.976562 -2.914062 4.078125 -3.148438 4.078125 -3.453125 Z M 4.078125 -3.453125 "/></g></g></g><g fill="#393536" fill-opacity="1"><g transform="translate(48.360413, 8.237009)"><g><path d="M 5.578125 0 L 5.578125 -3.25 L 3.96875 -0.578125 L 3.40625 -0.578125 L 1.828125 -3.1875 L 1.828125 0 L 0.640625 0 L 0.640625 -5.421875 L 1.6875 -5.421875 L 3.71875 -2.046875 L 5.71875 -5.421875 L 6.75 -5.421875 L 6.765625 0 Z M 5.578125 0 "/></g></g></g></g></g><path fill="#393536" d="M 27.929688 24.726562 C 27.691406 24.726562 27.5 24.535156 27.5 24.300781 C 27.5 24.25 27.507812 24.203125 27.523438 24.160156 C 27.539062 24.117188 27.558594 24.082031 27.585938 24.046875 C 27.585938 24.042969 27.585938 24.042969 27.585938 24.042969 C 27.59375 24.035156 27.601562 24.027344 27.605469 24.019531 C 27.605469 24.019531 27.609375 24.015625 27.609375 24.015625 C 27.628906 23.996094 27.648438 23.976562 27.671875 23.960938 C 27.675781 23.957031 27.679688 23.953125 27.683594 23.949219 C 27.6875 23.945312 27.691406 23.941406 27.699219 23.9375 C 27.703125 23.9375 27.710938 23.933594 27.714844 23.929688 C 27.71875 23.925781 27.726562 23.925781 27.730469 23.921875 C 27.738281 23.917969 27.746094 23.914062 27.75 23.910156 C 27.753906 23.910156 27.757812 23.90625 27.761719 23.90625 C 27.773438 23.902344 27.785156 23.894531 27.796875 23.890625 C 27.800781 23.890625 27.804688 23.890625 27.808594 23.890625 C 27.820312 23.886719 27.828125 23.882812 27.835938 23.882812 C 27.839844 23.882812 27.84375 23.878906 27.847656 23.878906 C 27.859375 23.878906 27.867188 23.875 27.875 23.875 C 27.878906 23.875 27.882812 23.875 27.886719 23.875 C 27.902344 23.871094 27.914062 23.871094 27.929688 23.871094 C 28.164062 23.871094 28.355469 24.0625 28.355469 24.300781 C 28.355469 24.535156 28.164062 24.726562 27.929688 24.726562 Z M 5.710938 24.828125 C 5.417969 24.828125 5.183594 24.589844 5.183594 24.300781 C 5.183594 24.007812 5.417969 23.773438 5.710938 23.773438 C 5.726562 23.773438 5.742188 23.773438 5.757812 23.777344 C 5.765625 23.777344 5.769531 23.777344 5.773438 23.777344 C 5.785156 23.78125 5.796875 23.78125 5.808594 23.78125 C 5.8125 23.785156 5.820312 23.785156 5.824219 23.785156 C 5.835938 23.789062 5.84375 23.792969 5.855469 23.792969 C 5.859375 23.796875 5.867188 23.796875 5.871094 23.800781 C 5.882812 23.804688 5.890625 23.804688 5.898438 23.808594 C 5.90625 23.8125 5.914062 23.816406 5.917969 23.816406 C 5.925781 23.820312 5.9375 23.824219 5.945312 23.832031 C 5.957031 23.835938 5.96875 23.84375 5.976562 23.847656 C 5.984375 23.851562 5.992188 23.855469 5.996094 23.859375 C 6.003906 23.863281 6.011719 23.871094 6.019531 23.875 C 6.023438 23.878906 6.027344 23.882812 6.035156 23.886719 C 6.042969 23.890625 6.046875 23.898438 6.054688 23.90625 C 6.058594 23.910156 6.0625 23.910156 6.066406 23.914062 C 6.074219 23.921875 6.082031 23.929688 6.089844 23.9375 C 6.09375 23.941406 6.09375 23.941406 6.097656 23.945312 C 6.132812 23.984375 6.164062 24.027344 6.183594 24.078125 C 6.183594 24.078125 6.183594 24.078125 6.1875 24.078125 C 6.191406 24.089844 6.195312 24.105469 6.203125 24.117188 C 6.203125 24.117188 6.203125 24.117188 6.203125 24.121094 C 6.207031 24.132812 6.210938 24.144531 6.214844 24.160156 C 6.226562 24.203125 6.234375 24.25 6.234375 24.300781 C 6.234375 24.589844 6 24.828125 5.710938 24.828125 Z M 27.929688 23.21875 L 5.710938 23.21875 C 5.113281 23.21875 4.628906 23.703125 4.628906 24.300781 C 4.628906 24.898438 5.113281 25.382812 5.710938 25.382812 C 6.304688 25.382812 6.789062 24.898438 6.789062 24.300781 C 6.789062 24.253906 6.785156 24.207031 6.78125 24.160156 L 26.859375 24.160156 C 26.851562 24.207031 26.847656 24.253906 26.847656 24.300781 C 26.847656 24.898438 27.332031 25.382812 27.929688 25.382812 C 28.523438 25.382812 29.007812 24.898438 29.007812 24.300781 C 29.007812 23.703125 28.523438 23.21875 27.929688 23.21875 " fill-opacity="1" fill-rule="nonzero"/><g clip-path="url(#351e811af3)"><path fill="#393536" d="M 11.917969 21.933594 C 11.917969 22.191406 12.128906 22.402344 12.390625 22.402344 L 21.25 22.402344 C 21.507812 22.402344 21.71875 22.191406 21.71875 21.933594 C 21.71875 21.671875 21.507812 21.460938 21.25 21.460938 L 12.390625 21.460938 C 12.128906 21.460938 11.917969 21.671875 11.917969 21.933594 " fill-opacity="1" fill-rule="nonzero"/></g><g clip-path="url(#053cdab4c0)"><path fill="#393536" d="M 15.867188 26.007812 C 15.609375 26.007812 15.398438 26.21875 15.398438 26.476562 L 15.398438 41.957031 C 15.398438 42.214844 15.609375 42.425781 15.867188 42.425781 C 16.128906 42.425781 16.335938 42.214844 16.335938 41.957031 L 16.335938 26.476562 C 16.335938 26.21875 16.128906 26.007812 15.867188 26.007812 " fill-opacity="1" fill-rule="nonzero"/></g><g clip-path="url(#fbe8bb8ff2)"><path fill="#393536" d="M 17.769531 26.007812 C 17.511719 26.007812 17.300781 26.21875 17.300781 26.476562 L 17.300781 41.957031 C 17.300781 42.214844 17.511719 42.425781 17.769531 42.425781 C 18.027344 42.425781 18.238281 42.214844 18.238281 41.957031 L 18.238281 26.476562 C 18.238281 26.21875 18.027344 26.007812 17.769531 26.007812 " fill-opacity="1" fill-rule="nonzero"/></g><path fill="#393536" d="M 20.28125 26.605469 C 20.234375 26.605469 20.183594 26.597656 20.140625 26.582031 C 20.101562 26.566406 20.0625 26.546875 20.027344 26.523438 C 20.027344 26.523438 20.027344 26.519531 20.023438 26.519531 C 20.015625 26.511719 20.007812 26.507812 20 26.5 C 19.976562 26.480469 19.957031 26.460938 19.941406 26.4375 C 19.9375 26.433594 19.9375 26.429688 19.933594 26.425781 C 19.929688 26.417969 19.925781 26.414062 19.921875 26.410156 C 19.917969 26.402344 19.914062 26.398438 19.914062 26.394531 C 19.910156 26.386719 19.90625 26.382812 19.902344 26.378906 C 19.898438 26.371094 19.894531 26.363281 19.894531 26.355469 C 19.890625 26.351562 19.890625 26.347656 19.886719 26.34375 C 19.882812 26.332031 19.878906 26.320312 19.875 26.308594 C 19.875 26.304688 19.871094 26.300781 19.871094 26.296875 C 19.867188 26.289062 19.867188 26.28125 19.863281 26.273438 C 19.863281 26.265625 19.863281 26.261719 19.863281 26.257812 C 19.859375 26.25 19.859375 26.238281 19.859375 26.230469 C 19.859375 26.226562 19.855469 26.222656 19.855469 26.21875 C 19.855469 26.207031 19.855469 26.191406 19.855469 26.179688 C 19.855469 25.941406 20.046875 25.75 20.28125 25.75 C 20.519531 25.75 20.710938 25.941406 20.710938 26.179688 C 20.710938 26.414062 20.519531 26.605469 20.28125 26.605469 Z M 21.359375 26.109375 C 21.328125 25.570312 20.886719 25.132812 20.351562 25.097656 C 19.722656 25.058594 19.203125 25.558594 19.203125 26.179688 L 19.203125 39.867188 C 19.203125 40.128906 19.414062 40.339844 19.671875 40.339844 C 19.929688 40.339844 20.140625 40.128906 20.140625 39.867188 L 20.140625 27.25 C 20.1875 27.257812 20.234375 27.261719 20.28125 27.261719 C 20.902344 27.261719 21.398438 26.738281 21.359375 26.109375 " fill-opacity="1" fill-rule="nonzero"/><path fill="#393536" d="M 13.78125 26.21875 C 13.78125 26.222656 13.78125 26.226562 13.777344 26.230469 C 13.777344 26.238281 13.777344 26.25 13.773438 26.257812 C 13.773438 26.261719 13.773438 26.265625 13.773438 26.273438 C 13.769531 26.28125 13.769531 26.289062 13.765625 26.296875 C 13.765625 26.300781 13.761719 26.304688 13.761719 26.308594 C 13.757812 26.320312 13.753906 26.332031 13.75 26.34375 C 13.746094 26.347656 13.746094 26.351562 13.746094 26.355469 C 13.742188 26.363281 13.738281 26.371094 13.734375 26.378906 C 13.730469 26.382812 13.726562 26.386719 13.726562 26.394531 C 13.722656 26.398438 13.71875 26.402344 13.714844 26.410156 C 13.710938 26.414062 13.707031 26.417969 13.703125 26.425781 C 13.703125 26.429688 13.699219 26.433594 13.695312 26.4375 C 13.679688 26.460938 13.660156 26.480469 13.640625 26.5 C 13.636719 26.5 13.636719 26.5 13.636719 26.5 C 13.628906 26.507812 13.621094 26.511719 13.613281 26.519531 C 13.613281 26.519531 13.609375 26.523438 13.609375 26.523438 C 13.574219 26.546875 13.535156 26.566406 13.496094 26.582031 C 13.453125 26.597656 13.40625 26.605469 13.355469 26.605469 C 13.121094 26.605469 12.929688 26.414062 12.929688 26.179688 C 12.929688 25.941406 13.121094 25.75 13.355469 25.75 C 13.589844 25.75 13.78125 25.941406 13.78125 26.179688 C 13.78125 26.191406 13.78125 26.207031 13.78125 26.21875 Z M 13.386719 25.097656 C 12.777344 25.082031 12.277344 25.570312 12.277344 26.179688 C 12.277344 26.777344 12.757812 27.261719 13.355469 27.261719 C 13.402344 27.261719 13.449219 27.257812 13.496094 27.25 L 13.496094 39.867188 C 13.496094 40.128906 13.707031 40.339844 13.964844 40.339844 C 14.226562 40.339844 14.433594 40.128906 14.433594 39.867188 L 14.433594 26.199219 C 14.433594 25.613281 13.972656 25.113281 13.386719 25.097656 " fill-opacity="1" fill-rule="nonzero"/><g clip-path="url(#9abf7bb1f8)"><path fill="#393536" d="M 9.582031 32.5625 C 9.582031 33.921875 7.847656 35.019531 5.710938 35.019531 C 3.570312 35.019531 1.835938 33.921875 1.835938 32.5625 L 9.582031 32.5625 " fill-opacity="1" fill-rule="nonzero"/></g><path fill="#393536" d="M 3.613281 32.796875 L 7.804688 32.796875 L 5.710938 26.015625 Z M 8.277344 33.148438 L 3.140625 33.148438 L 5.710938 24.828125 L 8.277344 33.148438 " fill-opacity="1" fill-rule="nonzero"/><path fill="#393536" d="M 5.886719 33.148438 L 5.53125 33.148438 L 5.53125 24.828125 L 5.886719 24.828125 L 5.886719 33.148438 " fill-opacity="1" fill-rule="nonzero"/><g clip-path="url(#b70e83bb88)"><path fill="#393536" d="M 31.800781 32.5625 C 31.800781 33.921875 30.066406 35.019531 27.929688 35.019531 C 25.789062 35.019531 24.054688 33.921875 24.054688 32.5625 L 31.800781 32.5625 " fill-opacity="1" fill-rule="nonzero"/></g><path fill="#393536" d="M 25.835938 32.796875 L 30.023438 32.796875 L 27.929688 26.015625 Z M 30.496094 33.148438 L 25.359375 33.148438 L 27.929688 24.828125 L 30.496094 33.148438 " fill-opacity="1" fill-rule="nonzero"/><path fill="#393536" d="M 28.105469 33.148438 L 27.753906 33.148438 L 27.753906 24.828125 L 28.105469 24.828125 L 28.105469 33.148438 " fill-opacity="1" fill-rule="nonzero"/></svg>